<svg width="316" height="274" viewBox="0 0 316 274" fill="none" xmlns="http://www.w3.org/2000/svg">
<path d="M278.248 32.8706C276.359 28.8099 273.904 24.9381 270.504 21.1607C255.96 5.10665 229.043 8.88402 209.682 9.07289C173.887 9.45063 138.093 10.3006 102.393 12.0004C86.3374 12.7559 70.2818 13.7947 54.3207 15.4001C41.6652 16.7222 25.6096 17.2888 15.3151 25.3158C4.83178 33.5317 3.79294 46.2804 2.37628 58.6515C-0.268168 81.977 0.959656 106.152 2.65966 129.478C3.79299 144.399 5.49296 158.659 15.9763 169.991C19.1874 173.485 23.2485 175.94 27.7818 177.734C34.7707 192.089 47.3318 199.171 63.4818 200.871C85.6762 203.138 108.437 203.326 130.821 203.515C126.571 218.719 121.943 233.735 117.221 248.844V248.939C117.221 249.033 117.126 249.128 117.126 249.222C117.032 249.6 117.032 249.883 117.032 250.261C117.032 250.355 117.032 250.355 117.032 250.45C117.126 251.772 117.882 252.905 119.015 253.66C119.204 253.755 119.393 253.944 119.582 254.038C119.676 254.133 119.771 254.133 119.96 254.133C120.243 254.227 120.621 254.322 120.904 254.416C122.132 254.51 123.171 254.133 124.021 253.094C132.615 244.595 141.115 236.001 149.521 227.313C145.648 241.289 141.493 255.171 136.676 268.865C135.26 272.831 140.643 275.475 143.476 272.831C166.71 249.978 189.187 226.463 210.626 201.91C212.987 199.171 219.882 200.682 223.282 200.305C232.537 199.549 241.793 198.227 250.954 196.81C264.176 194.733 278.154 191.9 289.487 184.345C308.848 171.596 307.243 139.205 306.865 119.468C306.204 89.8151 308.565 48.5469 278.248 32.8706ZM11.6319 114.179C10.4985 93.2148 10.2152 71.6835 13.2374 50.8133C16.0707 31.3596 30.6151 28.1489 47.8984 25.8824C61.5929 24.0882 75.4763 23.2382 89.2651 22.3883C121.943 20.4052 154.715 19.5552 187.393 18.8942C205.054 18.6109 222.81 18.0443 240.471 18.422C269.276 19.0831 273.148 43.8251 275.226 66.3008C277.304 90.004 279.665 113.802 275.321 137.411C272.204 154.503 260.587 160.642 244.91 164.797C233.671 167.819 221.96 169.235 210.437 170.652C204.96 171.313 189.848 169.33 185.976 173.863C168.598 194.072 150.371 213.62 131.86 232.885C137.998 215.697 142.721 197.849 147.065 180.19C147.821 177.073 145.554 173.957 142.343 173.957C122.415 174.146 102.393 174.052 82.4652 173.202C66.4096 172.541 49.5985 173.485 34.0152 169.141C33.2596 168.574 32.4096 168.291 31.5596 168.291C11.0652 160.925 12.5763 132.406 11.6319 114.179ZM89.454 192.466C72.454 191.9 53.754 192.939 42.1374 181.323C47.2374 181.984 52.4318 182.267 57.0596 182.456C83.3152 183.684 109.665 184.251 136.015 184.062C135.165 187.272 134.41 190.483 133.56 193.694C118.826 193.505 104.187 192.939 89.454 192.466ZM297.043 140.244C296.476 151.198 295.248 164.041 288.259 172.918C280.798 182.456 265.404 184.534 254.354 186.8C235.182 190.767 212.987 185.289 199.671 200.399C183.804 218.342 167.465 235.907 150.937 253.188C155.187 240.817 159.06 228.352 162.554 215.698C162.837 214.753 162.743 213.998 162.554 213.242C167.182 208.332 171.904 203.421 176.437 198.416C180.971 193.505 185.41 188.5 189.754 183.589C194.854 177.829 209.398 180.095 217.237 179.245C248.215 175.657 278.815 170.652 285.143 136.088C289.298 113.141 286.843 89.4374 284.671 66.4896C284.104 59.8792 283.632 53.6464 282.593 47.697C292.604 57.4238 293.359 70.9281 294.776 86.0377C296.382 104.075 297.987 122.018 297.043 140.244Z" fill="#ED969D"/>
<path d="M219.315 161.586C235.748 162.153 272.393 152.332 268.143 129.667C268.048 129.006 267.104 129.1 267.009 129.667C260.587 152.332 237.26 152.426 219.126 160.642C218.56 160.831 218.843 161.586 219.315 161.586Z" fill="#ED969D"/>
<path d="M41.5707 38.4426C41.9485 38.1592 41.5707 37.4982 41.1929 37.4982C17.0151 36.4594 19.1873 65.6399 18.6206 81.5995C18.6206 82.355 19.754 82.5438 19.9429 81.7883C22.0206 73.9502 22.7763 66.1121 24.3818 58.1795C26.4596 47.886 34.204 44.4864 41.5707 38.4426Z" fill="#ED969D"/>
<path d="M268.143 126.267C269.087 124.379 269.182 122.207 269.465 120.129C269.843 117.39 269.843 115.407 268.71 112.763C268.426 112.197 267.671 112.291 267.671 112.952C267.104 117.107 265.121 122.301 267.01 126.362C267.104 126.739 267.86 126.739 268.143 126.267Z" fill="#ED969D"/>
<path d="M19.7541 86.6988C19.6597 86.3211 19.1874 86.2266 18.9986 86.5099C17.6764 87.9265 17.4874 89.343 17.2041 91.2317C16.9208 93.1204 16.5431 95.7646 18.3375 97.0867C18.6208 97.2756 18.9041 97.0867 19.093 96.8978C20.0374 95.4813 19.6597 93.4982 19.6597 91.8928C19.7542 90.004 20.0375 88.4931 19.7541 86.6988Z" fill="#ED969D"/>
<path d="M313.098 109.741C313.098 110.119 313.665 110.214 313.665 109.836C318.482 86.0381 315.743 37.9705 287.599 27.8659C287.315 27.7714 287.126 28.2436 287.41 28.4325C314.515 47.0362 311.965 80.6553 313.098 109.741Z" fill="#ED969D"/>
<path d="M313.004 113.519C312.532 114.935 312.626 116.541 312.626 118.052C312.532 119.563 312.532 120.979 312.721 122.49C312.721 122.679 313.098 122.773 313.193 122.584C313.76 121.262 314.043 120.224 314.137 118.807C314.232 117.107 314.421 115.218 313.949 113.519C313.76 113.141 313.193 113.141 313.004 113.519Z" fill="#ED969D"/>
<path d="M52.2429 204.743C41.0041 201.343 33.6373 193.977 25.2318 186.328C25.1373 186.234 24.9485 186.328 24.9485 186.517C34.8651 206.254 63.8595 213.242 83.7873 208.709C84.165 208.615 84.0706 208.143 83.6928 208.143C73.0206 207.859 62.7263 207.954 52.2429 204.743Z" fill="#ED969D"/>
<path d="M87.5651 208.048C87.1873 208.143 87.1873 208.804 87.5651 208.898C89.1706 209.182 91.154 209.37 92.6651 208.804C92.9484 208.709 92.9484 208.332 92.6651 208.237C91.154 207.576 89.1706 207.765 87.5651 208.048Z" fill="#ED969D"/>
<path d="M236.693 205.121C229.137 205.782 221.582 206.254 214.498 209.182C208.359 211.731 204.393 217.114 200.237 222.025C187.298 237.04 173.132 251.111 161.232 266.976C161.043 267.165 161.421 267.448 161.609 267.259C174.737 254.51 186.921 240.534 199.104 226.841C203.637 221.741 207.509 216.17 213.365 212.487C220.071 208.237 229.326 207.954 236.787 205.971C237.259 205.782 237.165 205.121 236.693 205.121Z" fill="#ED969D"/>
<path d="M81.8983 6.90112C109.382 5.39016 136.865 3.97363 164.348 2.17937C164.821 2.17937 164.821 1.51831 164.348 1.51831C134.032 1.51831 103.715 3.12371 73.4929 4.82354C50.0706 6.14563 7.47614 4.35136 0.0150301 33.154C-0.0794144 33.3429 0.298387 33.4374 0.392831 33.2485C15.0317 5.29574 54.9817 8.31764 81.8983 6.90112Z" fill="#ED969D"/>
<path d="M173.226 1.61275C175.304 1.51831 177.476 1.51829 179.554 1.23497C180.121 1.14053 180.121 0.479497 179.554 0.385058C176.248 -0.0871351 171.715 -0.370497 168.598 1.04608C168.315 1.14052 168.409 1.61273 168.693 1.70716C170.204 1.89604 171.715 1.61275 173.226 1.61275Z" fill="#ED969D"/>
</svg>
