<svg width="256" height="180" viewBox="0 0 256 180" fill="none" xmlns="http://www.w3.org/2000/svg">
<path d="M244.48 51.1003C231.163 28.3626 209.725 19.603 189.797 11.5889C179.88 7.58188 153.813 -1.83001 119.341 0.313296C83.169 2.54979 58.1412 16.3415 52.569 19.4167C40.1968 26.4057 25.6523 34.6994 14.4135 52.0322C11.2968 56.8779 -4.56986 81.2929 1.28569 108.969C10.6357 152.954 67.5857 169.355 82.6023 173.641C116.319 183.333 145.691 178.301 155.986 176.437C167.98 174.294 177.802 171.125 184.886 168.423C188.191 171.218 195.275 176.623 205.852 178.767C213.691 180.351 220.208 179.605 224.174 178.767C218.886 171.871 213.691 164.975 208.402 158.079C213.975 154.165 221.53 148.201 229.369 140.001C239.002 129.937 248.447 120.059 252.98 106.36C261.008 82.0384 248.919 58.5553 244.48 51.1003ZM243.347 101.515C237.586 122.761 220.208 139.348 198.013 145.219C198.391 148.947 199.336 154.445 202.075 160.502C204.152 165.068 206.702 168.609 208.78 171.125C206.325 171.032 203.68 170.659 200.752 169.821C188.663 166.373 181.958 156.774 179.597 152.954C175.158 155.097 167.886 158.265 158.63 160.688C119.152 171.312 72.3079 162.273 40.8579 134.41C31.2246 125.836 18.4746 114.095 15.169 95.0846C12.5246 79.6155 18.1912 63.401 28.1079 51.1003C38.0246 38.7996 51.8134 29.9468 66.2634 23.5169C108.008 4.97266 157.78 5.25221 199.336 24.1692C208.497 28.3626 217.28 33.3947 224.552 40.1974C228.33 43.6453 252.13 68.899 243.347 101.515Z" fill="#ED969D"/>
<path d="M174.591 54.3615C176.197 54.3615 177.802 54.4547 179.219 55.0138C180.73 55.5729 181.958 56.7844 182.336 58.2754C182.619 59.8596 181.769 61.5369 180.541 62.562C179.314 63.5871 177.708 64.2394 176.197 64.7985C173.08 65.9167 169.964 67.1282 166.847 68.2464C164.58 69.0851 162.125 70.017 160.613 71.9739C159.008 74.0241 158.819 76.8197 158.725 79.4289C158.63 81.2927 158.536 83.3428 159.669 84.927C160.613 86.2316 162.125 86.9771 163.73 87.2567C164.863 87.443 165.241 87.3498 166.752 87.2567C166.941 87.2567 167.508 87.2566 168.547 87.1635C172.702 87.0703 172.891 87.0703 173.175 86.8839C174.591 86.0452 173.93 84.0883 174.591 82.4109C176.386 77.8447 185.169 80.1744 192.819 75.2355C197.73 72.0671 199.808 67.1282 200.658 64.8917C201.697 62.2824 204.53 55.2934 201.13 48.9566C198.675 44.3905 194.33 42.3403 191.497 41.2221C187.53 39.7311 183.375 39.2652 179.125 38.9856C174.119 38.706 169.114 38.6128 164.108 38.9856C161.652 39.172 159.102 39.3583 156.741 40.1038C154.38 40.8493 152.113 42.2471 150.697 44.2041C147.58 48.5839 150.13 54.8275 155.797 55.2934C158.536 55.4798 161.463 54.7343 164.202 54.5479C167.602 54.4547 171.097 54.2683 174.591 54.3615Z" fill="#ED969D"/>
<path d="M165.241 106.36C168.84 106.36 171.758 103.481 171.758 99.9302C171.758 96.3789 168.84 93.5 165.241 93.5C161.642 93.5 158.725 96.3789 158.725 99.9302C158.725 103.481 161.642 106.36 165.241 106.36Z" fill="#ED969D"/>
<path d="M121.419 73.1855C122.363 73.1855 123.402 73.2787 124.252 73.5583C125.102 73.931 125.952 74.6765 126.141 75.6084C126.33 76.5402 125.763 77.5653 125.008 78.2176C124.252 78.8699 123.308 79.2426 122.363 79.6153C120.475 80.3608 118.586 81.0131 116.697 81.7586C115.28 82.3177 113.769 82.8768 112.919 84.0883C111.975 85.3929 111.786 87.0702 111.786 88.6544C111.691 89.7726 111.691 91.0772 112.352 92.009C112.919 92.8477 113.863 93.2205 114.808 93.4068C115.469 93.5 115.752 93.4068 116.602 93.4068C116.697 93.4068 117.075 93.4068 117.736 93.4068C120.286 93.3136 120.38 93.4068 120.569 93.2204C121.419 92.7545 121.041 91.5431 121.419 90.5181C122.552 87.7225 127.841 89.1203 132.469 86.1383C135.491 84.1814 136.719 81.1995 137.286 79.8017C137.947 78.2176 139.647 73.931 137.569 70.1104C136.058 67.3148 133.413 66.1034 131.713 65.4511C129.352 64.5193 126.708 64.2397 124.158 64.0534C121.136 63.867 118.019 63.867 114.997 64.0534C113.486 64.1465 111.975 64.3329 110.558 64.7988C109.141 65.2648 107.725 66.1034 106.875 67.3148C104.986 70.0172 106.497 73.8378 109.991 74.1174C111.691 74.2106 113.391 73.7446 115.091 73.6515C117.169 73.1855 119.247 73.0923 121.419 73.1855Z" fill="#ED969D"/>
<path d="M115.752 104.87C117.943 104.87 119.719 103.117 119.719 100.956C119.719 98.7943 117.943 97.042 115.752 97.042C113.562 97.042 111.786 98.7943 111.786 100.956C111.786 103.117 113.562 104.87 115.752 104.87Z" fill="#ED969D"/>
<path d="M71.6466 90.0519C72.4966 90.0519 73.3466 90.0519 74.1021 90.4247C74.8577 90.7042 75.6132 91.3566 75.7077 92.1953C75.8966 93.034 75.4243 93.9658 74.7632 94.525C74.1021 95.0841 73.2521 95.3637 72.4021 95.7365C70.7966 96.3888 69.0966 96.9479 67.491 97.6002C66.2633 98.0662 64.941 98.5321 64.1855 99.5572C63.3355 100.675 63.241 102.166 63.1466 103.564C63.0521 104.589 63.0521 105.614 63.6188 106.453C64.091 107.199 64.941 107.571 65.791 107.665C66.3577 107.758 66.5466 107.665 67.3966 107.665C67.491 107.665 67.7744 107.665 68.341 107.665C70.5132 107.571 70.6077 107.665 70.7966 107.478C71.5521 107.012 71.1744 105.987 71.5521 105.055C72.4966 102.632 77.2188 103.844 81.2799 101.235C83.9243 99.5572 84.9632 96.9479 85.4355 95.7365C86.0021 94.3386 87.5132 90.6111 85.7188 87.2563C84.3966 84.8333 82.0355 83.7151 80.6188 83.1559C78.541 82.3172 76.2744 82.1308 74.0077 81.9445C71.3632 81.7581 68.7188 81.7581 65.9799 81.9445C64.6577 82.0377 63.3355 82.1309 62.1077 82.5968C60.8799 82.9696 59.6521 83.7151 58.8966 84.7401C57.1966 87.0699 58.6132 90.4247 61.541 90.7043C62.9577 90.7974 64.5633 90.4247 65.9799 90.2383C67.9632 90.1451 69.8521 90.0519 71.6466 90.0519Z" fill="#ED969D"/>
<path d="M66.7356 117.822C68.6655 117.822 70.2301 116.278 70.2301 114.374C70.2301 112.47 68.6655 110.926 66.7356 110.926C64.8057 110.926 63.2412 112.47 63.2412 114.374C63.2412 116.278 64.8057 117.822 66.7356 117.822Z" fill="#ED969D"/>
</svg>
