<svg width="96" height="43" viewBox="0 0 96 43" fill="none" xmlns="http://www.w3.org/2000/svg">
<path d="M21.5 43C33.4 43 43 33.4 43 21.5C43 9.6 33.4 0 21.5 0C9.6 0 0 9.6 0 21.5C0 33.4 9.6 43 21.5 43Z" fill="#ED969D"/>
<path d="M21.4991 35.3999C18.9991 35.3999 16.5991 34.6999 14.4991 33.3999C12.7991 32.3999 11.3991 30.9999 10.2991 29.3999C9.79913 28.6999 10.0991 27.6999 10.8991 27.2999C11.5991 26.9999 12.2991 27.1999 12.7991 27.7999C14.7991 30.6999 18.1991 32.5999 21.6991 32.4999C25.1991 32.4999 28.3991 30.6999 30.3991 27.8999C30.7991 27.2999 31.5991 27.0999 32.2991 27.3999C33.0991 27.7999 33.2991 28.7999 32.7991 29.4999C30.2991 33.0999 26.1991 35.2999 21.7991 35.3999C21.5991 35.3999 21.5991 35.3999 21.4991 35.3999Z" fill="white"/>
<path d="M10.3996 10.3002L12.6996 10.2002C12.8996 10.2002 13.1996 10.3002 13.2996 10.5002C14.4996 12.9002 15.6996 15.3002 16.8996 17.7002C17.0996 18.1002 17.6996 18.1002 17.8996 17.7002C18.9996 15.6002 19.9996 13.4002 21.0996 11.3002C21.2996 10.9002 21.9996 10.9002 22.0996 11.3002L23.0996 13.7002C23.1996 13.9002 23.1996 14.0002 23.0996 14.2002L17.8996 26.0002C17.6996 26.5002 16.9996 26.5002 16.8996 26.0002C14.5996 21.1002 12.2996 16.1002 9.8996 11.1002C9.6996 10.7002 9.9996 10.3002 10.3996 10.3002Z" fill="white"/>
<path d="M22.8992 20.4998L24.0992 17.8998C24.2992 17.4998 24.8992 17.3998 25.0992 17.7998C25.2992 18.1998 25.8992 18.1998 26.0992 17.7998L29.5992 10.5998C29.6992 10.3998 29.8992 10.2998 30.0992 10.2998H32.4992C32.8992 10.2998 33.1992 10.6998 32.9992 11.0998L26.0992 25.6998C25.8992 26.0998 25.2992 26.0998 25.0992 25.6998L22.8992 20.9998C22.7992 20.8998 22.7992 20.6998 22.8992 20.4998Z" fill="white"/>
<path d="M70.7 29.4001H67.1L64.1 19.1001H64L61 29.4001H57.3L53 14.1001H57L59.4 24.2001H59.5L62.2 14.1001H66L68.7 24.2001H68.8L71.3 14.1001H75L70.7 29.4001Z" fill="white"/>
<path d="M79.1992 17.1999C78.0992 17.1999 77.1992 16.2999 77.1992 15.2999C77.1992 14.2999 78.0992 13.3999 79.1992 13.3999C80.2992 13.3999 81.1992 14.2999 81.1992 15.2999C81.2992 16.2999 80.2992 17.1999 79.1992 17.1999ZM77.3992 29.3999V18.6999H80.9992V29.3999H77.3992Z" fill="white"/>
<path d="M91.5 17.3002V29.4002H87.8V17.3002H83.5V14.2002H95.8V17.3002H91.5Z" fill="white"/>
</svg>
