<svg width="103" height="135" viewBox="0 0 103 135" fill="none" xmlns="http://www.w3.org/2000/svg">
<path d="M46.5 0C20.8553 0 0 20.8553 0 46.5C0 78.7323 41.974 121.078 43.7565 122.868C44.516 123.62 45.508 124 46.5 124C47.492 124 48.484 123.62 49.2435 122.868C51.026 121.078 93 78.7323 93 46.5C93 20.8553 72.1448 0 46.5 0Z" fill="#ED969D"/>
<path d="M69 45C50.3869 45 35.25 60.1369 35.25 78.75C35.25 102.144 65.715 132.879 67.0087 134.179C67.56 134.724 68.28 135 69 135C69.72 135 70.44 134.724 70.9912 134.179C72.285 132.879 102.75 102.144 102.75 78.75C102.75 60.1369 87.6131 45 69 45ZM69 128.121C62.2838 120.932 40.875 96.6206 40.875 78.75C40.875 63.2419 53.4919 50.625 69 50.625C84.5081 50.625 97.125 63.2419 97.125 78.75C97.125 96.6037 75.7163 120.932 69 128.121Z" fill="white"/>
<path d="M69 61.875C59.6962 61.875 52.125 69.4462 52.125 78.75C52.125 88.0538 59.6962 95.625 69 95.625C78.3038 95.625 85.875 88.0538 85.875 78.75C85.875 69.4462 78.3038 61.875 69 61.875ZM69 90C62.7956 90 57.75 84.9544 57.75 78.75C57.75 72.5456 62.7956 67.5 69 67.5C75.2044 67.5 80.25 72.5456 80.25 78.75C80.25 84.9544 75.2044 90 69 90Z" fill="white"/>
</svg>
