<svg width="65" height="51" viewBox="0 0 65 51" fill="none" xmlns="http://www.w3.org/2000/svg">
<path d="M50.663 21.9568C52.5517 35.8401 42.8248 48.7789 28.9428 50.6678C15.0608 52.5567 2.12321 42.8289 0.234504 28.9456C-1.6542 15.0622 8.07264 2.12342 21.9546 0.23453C35.8366 -1.65436 48.6798 8.07342 50.663 21.9568ZM7.97818 27.9071C9.30028 37.5404 18.1772 44.2459 27.8096 42.9236C37.442 41.6014 44.1469 32.7236 42.8248 23.0903C41.5027 13.4569 32.6258 6.75148 22.9934 8.0737C13.361 9.39593 6.65609 18.2737 7.97818 27.9071Z" fill="#ED969D"/>
<path d="M64.3536 26.2559C64.5488 26.0606 64.5488 25.744 64.3536 25.5488L61.1716 22.3668C60.9763 22.1715 60.6597 22.1715 60.4645 22.3668C60.2692 22.5621 60.2692 22.8787 60.4645 23.0739L63.2929 25.9023L60.4645 28.7308C60.2692 28.926 60.2692 29.2426 60.4645 29.4379C60.6597 29.6331 60.9763 29.6331 61.1716 29.4379L64.3536 26.2559ZM25 26.4023L64 26.4023L64 25.4023L25 25.4023L25 26.4023Z" fill="black"/>
</svg>
