<?xml version="1.0" encoding="UTF-8"?>
<svg width="247" height="278" viewBox="0 0 247 278" fill="none" xmlns="http://www.w3.org/2000/svg">
<path d="M176.771 47.5482L125.475 115.428L57.5884 64.1369L17.1621 117.526L85.2389 168.817L33.9427 236.697L87.1458 277.12L138.442 209.049L206.52 260.531L246.756 207.143L178.869 155.851L230.165 87.7804L176.771 47.5482Z" fill="#010101"/>
<path d="M192.98 219.727L125.094 168.436L73.7975 236.316L16.5897 193.224L67.8858 125.343L0 74.052L43.0958 16.8497L110.983 68.1411L162.279 0.261108L219.486 43.3535L168.19 111.234L236.077 162.525L192.98 219.727ZM23.2639 192.079L72.844 229.452L124.14 161.572L192.027 212.863L229.403 163.288L161.516 111.996L212.812 44.1162L163.232 6.74402L111.936 74.6241L44.0492 23.3327L6.67424 72.908L74.5601 124.199L23.2639 192.079Z" fill="#ED969D"/>
</svg>
