<?xml version="1.0" encoding="UTF-8"?>
<svg width="250" height="240" viewBox="0 0 250 240" fill="none" xmlns="http://www.w3.org/2000/svg">
<path d="M147.133 239.714C203.945 239.714 250 193.663 250 136.856C250 80.0499 203.945 33.9993 147.133 33.9993C90.3215 33.9993 44.2666 80.0499 44.2666 136.856C44.2666 193.663 90.3215 239.714 147.133 239.714Z" fill="black"/>
<path d="M119.922 209.826C62.2014 217.864 8.80908 177.464 0.975521 119.954C-6.85804 62.445 33.3407 8.85207 90.8555 1.01926C148.577 -7.01968 201.968 33.3811 209.801 90.8904C217.841 148.4 177.437 201.787 119.922 209.826ZM91.4736 5.96622C36.6386 13.5929 -1.70458 64.3001 5.92283 119.13C13.5502 173.959 64.262 212.299 119.097 204.672C173.932 197.046 212.275 146.338 204.648 91.5088C197.02 36.6791 146.309 -1.66047 91.4736 5.96622Z" fill="#ED969D"/>
<path d="M112.5 157.057C84.0521 160.974 57.459 140.979 53.5422 112.534C49.6255 84.0884 69.6219 57.4982 98.0701 53.5818C126.518 49.6654 153.111 69.6596 157.028 98.105C160.945 126.55 140.949 153.141 112.5 157.057ZM98.8945 58.7349C73.1262 62.2391 55.1914 86.1497 58.6959 111.916C62.2004 137.681 86.113 155.614 111.881 152.11C137.65 148.606 155.584 124.695 152.08 98.9296C148.369 73.1638 124.457 55.0246 98.8945 58.7349Z" fill="#ED969D"/>
</svg>
