<?xml version="1.0" encoding="UTF-8"?>
<svg width="244" height="250" viewBox="0 0 244 250" fill="none" xmlns="http://www.w3.org/2000/svg">
<path d="M187.172 26.3316C244.411 69.5203 255.824 151.157 212.456 208.391L5.27051 51.6129C48.4633 -5.6209 129.933 -17.0326 187.172 26.3316Z" fill="black"/>
<path d="M212.28 250C211.227 250 210.174 249.649 209.296 248.947L1.93486 92.1682C-0.172105 90.5882 -0.698847 87.4281 1.05696 85.3213C22.829 56.5289 54.4338 38.0947 90.0767 33.0033C125.72 28.0876 161.187 37.2169 189.982 58.9868C218.777 80.7567 237.213 112.358 242.305 147.998C247.221 183.637 238.091 219.101 216.319 247.893C215.617 248.947 214.387 249.649 213.158 249.825C212.631 250 212.456 250 212.28 250ZM11.7675 87.4281L211.227 238.062C229.312 212.078 236.861 180.828 232.472 149.402C227.907 116.396 210.701 87.0769 184.012 66.8871C157.324 46.6973 124.49 38.2702 91.481 42.8349C59.8765 47.224 31.7837 63.0247 11.7675 87.4281Z" fill="#ED969D"/>
</svg>
