<?xml version="1.0" encoding="UTF-8"?>
<svg width="250" height="213" viewBox="0 0 250 213" fill="none" xmlns="http://www.w3.org/2000/svg">
<path d="M147.124 20.9521C193.395 55.5398 202.38 120.672 167.34 166.715L0 41.3903C35.0402 -4.4272 100.853 -13.6356 147.124 20.9521Z" fill="black"/>
<path d="M154.986 212.082C131.401 212.082 107.592 204.671 87.1518 189.623C63.1178 171.655 47.6192 145.377 43.3515 115.731C39.3084 86.0842 46.9447 56.6622 65.1387 32.8551L69.8559 26.5664L249.999 161.324L245.057 167.612C223.045 196.81 189.127 212.082 154.986 212.082ZM96.5851 177.045C137.016 207.366 194.294 201.302 227.538 164.243L73.2251 48.8014C60.8712 68.1166 55.7052 90.8007 58.8499 113.485C62.6684 139.089 75.9203 161.548 96.5851 177.045Z" fill="#ED969D"/>
</svg>
