<?xml version="1.0" encoding="UTF-8"?>
<svg width="250" height="241" viewBox="0 0 250 241" fill="none" xmlns="http://www.w3.org/2000/svg">
<path d="M147.903 240.141C204.289 240.141 249.999 194.436 249.999 138.056C249.999 81.6755 204.289 35.9702 147.903 35.9702C91.5176 35.9702 45.8076 81.6755 45.8076 138.056C45.8076 194.436 91.5176 240.141 147.903 240.141Z" fill="black"/>
<path d="M121.108 211.99C63.1073 220.13 9.17689 179.432 1.0364 121.097C-7.1041 63.1015 33.5977 9.17599 91.9379 1.03628C149.939 -7.10343 203.869 33.5951 212.01 91.9297C220.15 150.264 179.449 203.851 121.108 211.99ZM92.9548 9.51515C39.3632 16.9765 2.05396 66.4931 9.51608 120.08C16.9782 173.666 66.4982 210.973 120.09 203.511C173.681 196.05 210.992 146.534 203.53 92.9472C196.068 39.6999 146.546 2.05375 92.9548 9.51515Z" fill="#ED969D"/>
</svg>
