<svg width="68" height="21" viewBox="0 0 68 21" fill="none" xmlns="http://www.w3.org/2000/svg">
<path d="M42.4128 15.8978H38.8101L35.8343 5.69738H35.7755L32.7995 15.8978H29.1775L24.9094 0.841904H28.8252L31.2136 10.8661H31.2724L33.9546 0.841904H37.7333L40.4351 10.8661H40.4939L42.9218 0.841904H46.7004L42.4128 15.8978Z" fill="white"/>
<path d="M50.8314 3.8374C49.6958 3.8374 48.8345 2.95635 48.8345 1.91868C48.8345 0.900604 49.7154 0 50.8314 0C51.9474 0 52.8286 0.841866 52.8286 1.91868C52.8482 3.01509 51.9474 3.8374 50.8314 3.8374ZM49.0891 15.8978V5.30579H52.574V15.8978H49.0891Z" fill="white"/>
<path d="M62.9699 3.95488V15.9174H59.3283V3.95488H55.0798V0.841904H67.2383V3.95488H62.9699Z" fill="white"/>
<path d="M11.605 10.6962C11.605 7.77919 9.71639 5.21893 6.67339 5.21893C5.14141 5.21893 4.07112 5.93243 3.48374 6.62497H3.44157V0.0984344H0V15.9636H3.16897V14.5995H3.21087C3.88231 15.6488 5.24643 16.2574 6.63149 16.2574C9.77924 16.2574 11.605 13.6132 11.605 10.6962ZM8.28943 10.6962C8.28943 12.0603 7.44985 13.4033 5.81313 13.4033C4.26021 13.4033 3.29466 12.0812 3.29466 10.7172C3.29466 9.39507 4.26021 8.03101 5.81313 8.03101C7.44985 8.03101 8.28943 9.35309 8.28943 10.6962Z" fill="#ED969D"/>
<path d="M23.7384 5.51271H20.087L18.0093 12.2281H17.9465L15.6171 5.51271H11.7976L16.1626 15.7957L15.8268 16.656C15.4911 17.5584 15.1344 18.062 14.0641 18.062C13.7284 18.062 13.2877 17.9782 12.952 17.8732L12.5741 20.7693C13.0779 20.8952 13.8122 21 14.463 21C17.0859 21 18.2193 19.7199 19.0586 17.5375L23.7384 5.51271Z" fill="#ED969D"/>
</svg>
