<svg width="43" height="17" viewBox="0 0 43 17" fill="none" xmlns="http://www.w3.org/2000/svg">
<path d="M17.7 16.4001H14.1L11.1 6.1001H11L8 16.4001H4.3L0 1.1001H4L6.4 11.2001H6.5L9.2 1.1001H13L15.7 11.2001H15.8L18.3 1.1001H22L17.7 16.4001Z" fill="white"/>
<path d="M26.1992 4.1999C25.0992 4.1999 24.1992 3.2999 24.1992 2.2999C24.1992 1.2999 25.0992 0.399902 26.1992 0.399902C27.2992 0.399902 28.1992 1.2999 28.1992 2.2999C28.2992 3.2999 27.2992 4.1999 26.1992 4.1999ZM24.3992 16.3999V5.6999H27.9992V16.3999H24.3992Z" fill="white"/>
<path d="M38.5 4.30019V16.4002H34.8V4.30019H30.5V1.2002H42.8V4.30019H38.5Z" fill="white"/>
</svg>
